<svg xmlns="http://www.w3.org/2000/svg" viewBox="0 0 371.97 84.81"><defs><style>.cls-1{fill:#46474f;}.cls-2{fill:#00a139;}.cls-2,.cls-3,.cls-4,.cls-5{fill-rule:evenodd;}.cls-3{fill:#ffd400;}.cls-4{fill:#e52027;}.cls-5{fill:#3162ac;}</style></defs><g id="Слой_2" data-name="Слой 2"><g id="Слой_1-2" data-name="Слой 1"><path class="cls-1" d="M356.91,53.11V35.18h-7.39V28.66h22.27v6.52h-7.42V53.11ZM329.6,38.62h10.62a5.62,5.62,0,0,0-1.71-3.69,5,5,0,0,0-3.59-1.38,5.14,5.14,0,0,0-3.64,1.38A5.69,5.69,0,0,0,329.6,38.62ZM335,53.56a14.86,14.86,0,0,1-5.53-1,12.14,12.14,0,0,1-4.16-2.73,12.47,12.47,0,0,1-2.55-4,12.64,12.64,0,0,1-.91-4.73,14,14,0,0,1,.89-5A12.86,12.86,0,0,1,325.3,32a11.52,11.52,0,0,1,4.14-2.8,15.38,15.38,0,0,1,11.12,0A11.44,11.44,0,0,1,344.68,32a12.6,12.6,0,0,1,2.48,4A13,13,0,0,1,348,40.8a16.54,16.54,0,0,1-.18,2.39H329.78a5.06,5.06,0,0,0,1.73,3.68,5.58,5.58,0,0,0,3.73,1.35,6.5,6.5,0,0,0,3.16-.82,4.25,4.25,0,0,0,2-2.12l6.35,1.78a11.31,11.31,0,0,1-4.55,4.73A14.14,14.14,0,0,1,335,53.56Zm-26.5-14.15h-8.8v7.21h8.48a3.33,3.33,0,0,0,2.46-1,3.52,3.52,0,0,0,1-2.55,4,4,0,0,0-.89-2.62A2.78,2.78,0,0,0,308.51,39.41Zm-8.8-12.85v6.85h7.51a3.18,3.18,0,0,0,2.27-.89,3.42,3.42,0,0,0,.93-2.57,3.46,3.46,0,0,0-.84-2.48,2.7,2.7,0,0,0-2.09-.91Zm8.48,26.55H292.07V20h18.4a6.67,6.67,0,0,1,4,1.28,7.88,7.88,0,0,1,2.66,3.16,9.5,9.5,0,0,1,.89,4.05,8.83,8.83,0,0,1-1.25,4.55,7.57,7.57,0,0,1-3.5,3.09,8.45,8.45,0,0,1,4.52,3,8.72,8.72,0,0,1,1.62,5.43,7.35,7.35,0,0,1-1.55,4.71,9,9,0,0,1-4.05,2.87A16.36,16.36,0,0,1,308.19,53.11Zm-36.14-9.47V36.93h14.33v6.71Zm-11.3-2.88a6.19,6.19,0,0,0-1.66-4.46,5.65,5.65,0,0,0-7.19-.87,5.86,5.86,0,0,0-2.16,2.44v5A7.58,7.58,0,0,0,252,46a5,5,0,0,0,3.23,1.25,4.87,4.87,0,0,0,3.93-1.91A7.08,7.08,0,0,0,260.75,40.76Zm-11,8.39V63H242.3V28.66h6.46v3.95A9.22,9.22,0,0,1,257,28.18a10.49,10.49,0,0,1,5.83,1.68,11.29,11.29,0,0,1,4.07,4.55,14,14,0,0,1,1.45,6.39,13.86,13.86,0,0,1-3,9.12,9.34,9.34,0,0,1-7.55,3.64A9.79,9.79,0,0,1,253,52.4,8.1,8.1,0,0,1,249.74,49.15Zm-25.47,4V35.18h-7.39V28.66h22.26v6.52h-7.41V53.11Zm-33.32,0V28.66h7.39v8.75h1.77l6-8.75h8L205.8,40.39l9.28,12.72h-8.53L200,43.87h-1.64v9.24ZM169.07,38.62h10.62A5.62,5.62,0,0,0,178,34.93a5,5,0,0,0-3.59-1.38,5.13,5.13,0,0,0-3.64,1.38A5.69,5.69,0,0,0,169.07,38.62Zm5.41,14.94a14.86,14.86,0,0,1-5.53-1,12,12,0,0,1-4.16-2.73,12.47,12.47,0,0,1-2.55-4,12.64,12.64,0,0,1-.91-4.73,14,14,0,0,1,.89-5A12.86,12.86,0,0,1,164.77,32a11.52,11.52,0,0,1,4.14-2.8,15.38,15.38,0,0,1,11.12,0A11.44,11.44,0,0,1,184.15,32a12.6,12.6,0,0,1,2.48,4,13,13,0,0,1,.88,4.78,16.54,16.54,0,0,1-.18,2.39H169.25A5,5,0,0,0,171,46.87a5.58,5.58,0,0,0,3.73,1.35,6.5,6.5,0,0,0,3.16-.82,4.29,4.29,0,0,0,2-2.12l6.35,1.78a11.31,11.31,0,0,1-4.55,4.73A14.17,14.17,0,0,1,174.48,53.56Zm-39.71-.45V28.66h22.86V53.11h-7.44V35.18h-8V53.11ZM117.91,19.85a16,16,0,0,1,8,2,12.61,12.61,0,0,1,5.19,5.25l-5.87,4.1A7.48,7.48,0,0,0,123.83,29a5.88,5.88,0,0,0-1.91-1.41,8.47,8.47,0,0,0-2.07-.71,9.91,9.91,0,0,0-2.12-.23,8.43,8.43,0,0,0-3.14.57,7.39,7.39,0,0,0-2.43,1.55A9.16,9.16,0,0,0,110.45,31a11.58,11.58,0,0,0-1,2.68,13,13,0,0,0-.32,2.87,11.54,11.54,0,0,0,1,4.91,9.14,9.14,0,0,0,3.07,3.69,7.84,7.84,0,0,0,4.59,1.41,9.64,9.64,0,0,0,2.85-.43,8.12,8.12,0,0,0,2.66-1.48A6.73,6.73,0,0,0,125.24,42l6.23,3.66a10,10,0,0,1-3.21,4.14,15.74,15.74,0,0,1-5,2.68,18.35,18.35,0,0,1-5.57.87,15,15,0,0,1-6.57-1.48A16.16,16.16,0,0,1,105.86,48a18.9,18.9,0,0,1-3.32-5.48,17,17,0,0,1-1.21-6.25,16.67,16.67,0,0,1,.71-4.78,15.79,15.79,0,0,1,2.14-4.46,17,17,0,0,1,3.38-3.7,15,15,0,0,1,4.62-2.55A16.89,16.89,0,0,1,117.91,19.85Z"/><path class="cls-1" d="M363.39,80.34V69.41h1.43v4.68h1.34l3.64-4.68h1.64l-4.18,5.31L372,80.34h-1.68l-4.13-4.93h-1.34v4.93Zm-12.46,0V69.43h1.43v9l6.65-9h1.28V80.34h-1.43V71.51l-6.54,8.83Zm-12.23,0V69.41h1.42v4.7h6.25v-4.7h1.43V80.34h-1.43v-5h-6.25v5Zm-12.46,0V69.43h1.43v9l6.65-9h1.28V80.34h-1.43V71.51l-6.54,8.83Zm-13,.06V79.1a1.78,1.78,0,0,0,1-.31,2.58,2.58,0,0,0,.78-1,7.44,7.44,0,0,0,.57-2,29.33,29.33,0,0,0,.26-3.28l.13-3h7.1V80.34h-1.44V70.69h-4.4l0,1.88a27.31,27.31,0,0,1-.35,3.79,7.48,7.48,0,0,1-.78,2.41A3.09,3.09,0,0,1,314.9,80,3.45,3.45,0,0,1,313.26,80.4Zm-9.56-.06V69.41h1.43v4.68h1.34l3.65-4.68h1.64l-4.18,5.31,4.7,5.62H310.6l-4.13-4.93h-1.34v4.93ZM288.13,69.41l3.22,4.28.16.32.17-.32,3.19-4.28h1.61l-4.15,5.5,4.15,5.43h-1.61l-3.19-4.26-.17-.29-.16.29-3.2,4.26h-1.61l4.13-5.43-4.13-5.5ZM275,79.2h2.38a2.29,2.29,0,0,0,1.81-.69,2.6,2.6,0,0,0,.61-1.76,2.47,2.47,0,0,0-.58-1.7,2.42,2.42,0,0,0-1.88-.65H275Zm8.24,1.14V69.43h1.43V80.34Zm-9.67,0V69.41H275v3.86h2.47a3.85,3.85,0,0,1,2.8.94,3.32,3.32,0,0,1,1,2.52,3.64,3.64,0,0,1-1,2.6,3.53,3.53,0,0,1-2.7,1Zm-12.23,0V69.41h1.42v4.7H269v-4.7h1.43V80.34H269v-5h-6.25v5Zm-3.85-5.45a4.45,4.45,0,0,0-1.19-3.09,3.6,3.6,0,0,0-4.39-1,4.39,4.39,0,0,0-1.38,1,2.5,2.5,0,0,0-.7,1.34v3.35a4.66,4.66,0,0,0,1.53,2,3.61,3.61,0,0,0,2.22.77,3.5,3.5,0,0,0,2.05-.63A4.23,4.23,0,0,0,257,77,5,5,0,0,0,257.48,74.89Zm-7.66,3.19v6.73H248.4V69.41h1.28v2.12a5.12,5.12,0,0,1,1.76-1.67,4.57,4.57,0,0,1,2.31-.64,4.63,4.63,0,0,1,2.65.81,5.51,5.51,0,0,1,1.87,2.11,6,6,0,0,1,.66,2.75,6.51,6.51,0,0,1-.62,2.83,5.06,5.06,0,0,1-1.77,2.06,4.66,4.66,0,0,1-5,.09A5.57,5.57,0,0,1,249.82,78.08Zm-6.42,0a1.61,1.61,0,0,0,.48-1V75.39a8,8,0,0,0-3-.57,4.5,4.5,0,0,0-2.49.62,1.89,1.89,0,0,0-.93,1.65,2.24,2.24,0,0,0,.73,1.67,2.65,2.65,0,0,0,1.93.7,4.73,4.73,0,0,0,1.91-.39A3.55,3.55,0,0,0,243.4,78Zm-7.31-.84a2.81,2.81,0,0,1,1.27-2.41,5.53,5.53,0,0,1,3.34-.93,9.39,9.39,0,0,1,3.18.51v-.93a2.92,2.92,0,0,0-.83-2.2,3.06,3.06,0,0,0-2.25-.82,6.3,6.3,0,0,0-3.51,1.28l-.54-1a7.38,7.38,0,0,1,4.2-1.47,4.34,4.34,0,0,1,3.19,1.16,4.27,4.27,0,0,1,1.18,3.18v5.06a.63.63,0,0,0,.12.43.55.55,0,0,0,.4.15v1.14a3.81,3.81,0,0,1-.66,0,1.11,1.11,0,0,1-.79-.31,1.07,1.07,0,0,1-.29-.69l0-.8a5,5,0,0,1-1.9,1.44,5.81,5.81,0,0,1-2.41.52,3.78,3.78,0,0,1-2.64-1A3.12,3.12,0,0,1,236.09,77.19Zm-11.38,3.15V69.41h1.43v4.7h6.25v-4.7h1.42V80.34h-1.42v-5h-6.25v5Zm-12.45,0V69.43h1.42v9l6.65-9h1.28V80.34h-1.42V71.51l-6.55,8.83Zm-3.86-5.45a4.4,4.4,0,0,0-1.19-3.09,3.59,3.59,0,0,0-4.38-1,4.17,4.17,0,0,0-1.38,1,2.5,2.5,0,0,0-.7,1.34v3.35a4.66,4.66,0,0,0,1.53,2,3.61,3.61,0,0,0,2.22.77,3.52,3.52,0,0,0,2.05-.63A4.13,4.13,0,0,0,207.93,77,4.87,4.87,0,0,0,208.4,74.89Zm-7.65,3.19v6.73h-1.42V69.41h1.28v2.12a5,5,0,0,1,1.76-1.67,4.51,4.51,0,0,1,2.3-.64,4.66,4.66,0,0,1,2.66.81,5.57,5.57,0,0,1,1.86,2.11,5.85,5.85,0,0,1,.67,2.75,6.38,6.38,0,0,1-.63,2.83,5,5,0,0,1-1.76,2.06,4.68,4.68,0,0,1-5,.09A5.54,5.54,0,0,1,200.75,78.08ZM187.7,74.36h8.08a4.34,4.34,0,0,0-1.29-2.89,3.94,3.94,0,0,0-5.54,0A4.25,4.25,0,0,0,187.7,74.36Zm4,6.18a5.23,5.23,0,0,1-2.81-.77,5.44,5.44,0,0,1-2-2.08,6.07,6.07,0,0,1-.7-2.85A5.84,5.84,0,0,1,187,72a5.39,5.39,0,0,1,4.75-2.82,5.36,5.36,0,0,1,4.75,2.83,5.82,5.82,0,0,1,.67,2.77,3.45,3.45,0,0,1,0,.57h-9.36A4.42,4.42,0,0,0,189,78.3a3.8,3.8,0,0,0,2.76,1.16,4,4,0,0,0,2-.54,3.14,3.14,0,0,0,1.34-1.44l1.24.34a4.23,4.23,0,0,1-1.81,2A5.53,5.53,0,0,1,191.72,80.54Zm-12-.2V70.69h-3.91V69.41h9.23v1.28h-3.9v9.65Zm-14.36-6h8.09a4.34,4.34,0,0,0-1.29-2.89,3.8,3.8,0,0,0-2.77-1.14,3.84,3.84,0,0,0-2.78,1.14A4.3,4.3,0,0,0,165.38,74.36Zm4,6.18a5.29,5.29,0,0,1-2.82-.77,5.41,5.41,0,0,1-2-2.08,6,6,0,0,1-.7-2.85,5.73,5.73,0,0,1,.7-2.8,5.42,5.42,0,0,1,7.56-2,5.21,5.21,0,0,1,1.93,2,5.82,5.82,0,0,1,.68,2.77,5.31,5.31,0,0,1,0,.57h-9.37a4.43,4.43,0,0,0,1.31,2.91,3.77,3.77,0,0,0,2.75,1.16,4,4,0,0,0,2-.54,3.12,3.12,0,0,0,1.33-1.44l1.24.34a4.15,4.15,0,0,1-1.8,2A5.58,5.58,0,0,1,169.41,80.54Zm-14.6-1.22h4.05a1.86,1.86,0,0,0,1.39-.61,2,2,0,0,0,0-2.79,1.74,1.74,0,0,0-1.33-.59h-4.13Zm0-5h3.71a1.67,1.67,0,0,0,1.31-.61,2,2,0,0,0,.53-1.4,1.91,1.91,0,0,0-.51-1.33,1.59,1.59,0,0,0-1.25-.57h-3.79Zm-1.36,6V69.41h5.45a2.71,2.71,0,0,1,2.08.8,2.66,2.66,0,0,1,.76,1.88,3,3,0,0,1-.44,1.58,2.77,2.77,0,0,1-1.2,1.07,2.85,2.85,0,0,1,1.53,1,2.81,2.81,0,0,1-.34,3.81,3.53,3.53,0,0,1-2.39.79ZM139.28,79.2H142a2.27,2.27,0,0,0,1.8-.69,2.6,2.6,0,0,0,.61-1.76,2.47,2.47,0,0,0-.58-1.7A2.4,2.4,0,0,0,142,74.4h-2.7Zm-1.42,1.14V69.41h1.42v3.86h2.83a3.84,3.84,0,0,1,2.8.94,3.32,3.32,0,0,1,1,2.52,3.6,3.6,0,0,1-1,2.6,3.53,3.53,0,0,1-2.7,1Zm-7.26,0V70.69h-3.9V69.41h9.23v1.28H132v9.65Zm-14.35-6h8.08A4.34,4.34,0,0,0,123,71.47a3.94,3.94,0,0,0-5.54,0A4.25,4.25,0,0,0,116.25,74.36Zm4,6.18a5.23,5.23,0,0,1-2.81-.77,5.51,5.51,0,0,1-2-2.08,6.07,6.07,0,0,1-.7-2.85,5.84,5.84,0,0,1,.7-2.8,5.36,5.36,0,0,1,2-2.05,5.28,5.28,0,0,1,2.79-.77A5.36,5.36,0,0,1,125,72.05a5.82,5.82,0,0,1,.67,2.77,3.45,3.45,0,0,1,0,.57h-9.36a4.42,4.42,0,0,0,1.3,2.91,3.8,3.8,0,0,0,2.76,1.16,4,4,0,0,0,2-.54,3.14,3.14,0,0,0,1.34-1.44l1.24.34a4.23,4.23,0,0,1-1.81,2A5.53,5.53,0,0,1,120.27,80.54Zm-11.39,0a5.3,5.3,0,0,1-2.83-.77,5.51,5.51,0,0,1-2-2.08,6.15,6.15,0,0,1,0-5.68A5.12,5.12,0,0,1,106,70a5.46,5.46,0,0,1,2.84-.76,5.22,5.22,0,0,1,2.7.7,4.57,4.57,0,0,1,1.76,1.91l-1.39.44a3.28,3.28,0,0,0-1.3-1.31,3.49,3.49,0,0,0-1.83-.49A3.71,3.71,0,0,0,106,71.72a4.47,4.47,0,0,0-1.13,3.12A4.55,4.55,0,0,0,106,78a3.66,3.66,0,0,0,2.81,1.3,3.86,3.86,0,0,0,2-.55A2.53,2.53,0,0,0,112,77.42l1.4.42a4,4,0,0,1-1.72,2A5.36,5.36,0,0,1,108.88,80.54Z"/><path class="cls-2" d="M27.89,13.79v14h-14A14,14,0,0,0,0,40.21H8.17A6.1,6.1,0,0,1,9.7,37.53a5.86,5.86,0,0,1,4.15-1.72h22v-22a5.84,5.84,0,0,1,1.72-4.15,6,6,0,0,1,2.69-1.53V0h-.13A13.91,13.91,0,0,0,27.89,13.79Z"/><path class="cls-3" d="M35.93,69.64v-22H13.85A5.83,5.83,0,0,1,9.7,45.89a6,6,0,0,1-1.53-2.68H.06a13.79,13.79,0,0,0,4,8.36,14,14,0,0,0,9.83,4.09h14v14A14,14,0,0,0,40.34,83.49V75.32a6,6,0,0,1-2.68-1.54A5.81,5.81,0,0,1,35.93,69.64Z"/><path class="cls-4" d="M73.85,45.89a5.83,5.83,0,0,1-4.15,1.73h-22v22A5.84,5.84,0,0,1,46,73.78a6.08,6.08,0,0,1-2.68,1.54v8.17a13.79,13.79,0,0,0,8.36-4,13.94,13.94,0,0,0,4.08-9.83v-14h14a14.06,14.06,0,0,0,9.83-4.09,13.79,13.79,0,0,0,4-8.36H75.38A6.34,6.34,0,0,1,73.85,45.89Z"/><path class="cls-5" d="M47.68,13.79v22h22a5.86,5.86,0,0,1,4.15,1.72,6,6,0,0,1,1.53,2.68h8.17a13.79,13.79,0,0,0-4-8.36,13.94,13.94,0,0,0-9.83-4.08h-14v-14A14.05,14.05,0,0,0,51.64,4a13.55,13.55,0,0,0-8.17-4h-.19V8.11A6,6,0,0,1,46,9.64,6.11,6.11,0,0,1,47.68,13.79Z"/></g></g></svg>