<svg xmlns="http://www.w3.org/2000/svg" viewBox="0 0 270.63 160.46"><defs><style>.cls-1{fill:#46474f;}.cls-2{fill:#00a139;}.cls-2,.cls-3,.cls-4,.cls-5{fill-rule:evenodd;}.cls-3{fill:#ffd400;}.cls-4{fill:#e52027;}.cls-5{fill:#3162ac;}</style></defs><g id="Слой_2" data-name="Слой 2"><g id="Слой_1-2" data-name="Слой 1"><path class="cls-1" d="M255.58,128.77V110.84h-7.39v-6.52h22.27v6.52H263v17.93Zm-27.32-14.49h10.63a5.67,5.67,0,0,0-1.71-3.69,5,5,0,0,0-3.59-1.38,5.13,5.13,0,0,0-3.64,1.38A5.74,5.74,0,0,0,228.26,114.28Zm5.42,14.94a14.82,14.82,0,0,1-5.53-1,12,12,0,0,1-4.16-2.73,12.54,12.54,0,0,1-3.46-8.69,14,14,0,0,1,.89-5,12.52,12.52,0,0,1,2.55-4.14,11.52,11.52,0,0,1,4.14-2.8,15.38,15.38,0,0,1,11.12,0,11.31,11.31,0,0,1,4.11,2.78,12.26,12.26,0,0,1,2.48,4,13,13,0,0,1,.89,4.78,16.54,16.54,0,0,1-.18,2.39H228.45a5.05,5.05,0,0,0,1.72,3.68,5.61,5.61,0,0,0,3.73,1.35,6.51,6.51,0,0,0,3.17-.82,4.29,4.29,0,0,0,2-2.12l6.34,1.78a11.19,11.19,0,0,1-4.55,4.73A14.1,14.1,0,0,1,233.68,129.22Zm-26.5-14.15h-8.8v7.21h8.48a3.33,3.33,0,0,0,2.46-1,3.52,3.52,0,0,0,1-2.55,4,4,0,0,0-.89-2.62A2.79,2.79,0,0,0,207.18,115.07Zm-8.8-12.85v6.85h7.5a3.19,3.19,0,0,0,2.28-.89,3.42,3.42,0,0,0,.93-2.57,3.46,3.46,0,0,0-.84-2.48,2.71,2.71,0,0,0-2.09-.91Zm8.48,26.55H190.74V95.7h18.4a6.69,6.69,0,0,1,4,1.27,7.88,7.88,0,0,1,2.66,3.16,9.5,9.5,0,0,1,.89,4.05,8.83,8.83,0,0,1-1.25,4.55,7.65,7.65,0,0,1-3.51,3.09,8.51,8.51,0,0,1,4.53,3,8.71,8.71,0,0,1,1.61,5.43,7.35,7.35,0,0,1-1.54,4.71,9,9,0,0,1-4.05,2.87A16.4,16.4,0,0,1,206.86,128.77Zm-36.14-9.47v-6.71h14.33v6.71Zm-11.3-2.88a6.23,6.23,0,0,0-1.66-4.46,5.65,5.65,0,0,0-7.19-.87,5.73,5.73,0,0,0-2.16,2.44v5a7.65,7.65,0,0,0,2.27,3.14,5,5,0,0,0,3.23,1.25,4.88,4.88,0,0,0,3.94-1.91A7.13,7.13,0,0,0,159.42,116.42Zm-11,8.39v13.87H141V104.32h6.46v4a9.22,9.22,0,0,1,8.21-4.43,10.48,10.48,0,0,1,5.82,1.68,11.22,11.22,0,0,1,4.07,4.55A15.1,15.1,0,0,1,164,125.58a9.35,9.35,0,0,1-7.55,3.64,9.79,9.79,0,0,1-4.82-1.16A8.1,8.1,0,0,1,148.41,124.81Zm-25.48,4V110.84h-7.39v-6.52h22.27v6.52h-7.42v17.93Zm-33.32,0V104.32H97v8.75h1.77l6-8.75h8l-8.39,11.73,9.28,12.72h-8.53l-6.58-9.24H97v9.24ZM67.73,114.28H78.35a5.66,5.66,0,0,0-1.7-3.69,5,5,0,0,0-3.59-1.38,5.13,5.13,0,0,0-3.64,1.38A5.7,5.7,0,0,0,67.73,114.28Zm5.42,14.94a14.78,14.78,0,0,1-5.53-1,12,12,0,0,1-4.16-2.73A12.54,12.54,0,0,1,60,116.8a14,14,0,0,1,.89-5,12.66,12.66,0,0,1,2.54-4.14,11.7,11.7,0,0,1,4.14-2.8,14.59,14.59,0,0,1,5.58-1,14.4,14.4,0,0,1,5.55,1,11.4,11.4,0,0,1,4.11,2.78,12.26,12.26,0,0,1,2.48,4,13,13,0,0,1,.89,4.78,16.54,16.54,0,0,1-.18,2.39H67.92a5.05,5.05,0,0,0,1.72,3.68,5.61,5.61,0,0,0,3.73,1.35,6.51,6.51,0,0,0,3.17-.82,4.29,4.29,0,0,0,2-2.12l6.34,1.78a11.19,11.19,0,0,1-4.55,4.73A14.1,14.1,0,0,1,73.15,129.22Zm-39.72-.45V104.32H56.29v24.45H48.86V110.84h-8v17.93ZM16.58,95.51a16.11,16.11,0,0,1,8,2,12.53,12.53,0,0,1,5.18,5.25l-5.87,4.1a7.09,7.09,0,0,0-1.41-2.16,5.67,5.67,0,0,0-1.91-1.41,8.19,8.19,0,0,0-2.07-.71,9.74,9.74,0,0,0-2.11-.23,8.43,8.43,0,0,0-3.14.57,7.19,7.19,0,0,0-2.43,1.55,9.16,9.16,0,0,0-1.71,2.25,11.14,11.14,0,0,0-1,2.68,12.38,12.38,0,0,0-.32,2.87,11.69,11.69,0,0,0,1,4.91,9.24,9.24,0,0,0,3.08,3.69,7.82,7.82,0,0,0,4.59,1.41,9.58,9.58,0,0,0,2.84-.43A8,8,0,0,0,22,120.33a6.63,6.63,0,0,0,1.91-2.64l6.24,3.66a10.06,10.06,0,0,1-3.21,4.14,15.84,15.84,0,0,1-5.05,2.68,18.35,18.35,0,0,1-5.57.87,15,15,0,0,1-6.58-1.48,16.12,16.12,0,0,1-5.2-3.87,18.68,18.68,0,0,1-3.32-5.48A16.94,16.94,0,0,1,0,112a16.67,16.67,0,0,1,.71-4.78,16,16,0,0,1,2.13-4.46A17.32,17.32,0,0,1,6.23,99a15,15,0,0,1,4.62-2.55A16.89,16.89,0,0,1,16.58,95.51Z"/><path class="cls-1" d="M262.06,156V145.06h1.42v4.69h1.34l3.65-4.69h1.64l-4.18,5.31,4.7,5.63H269l-4.13-4.93h-1.34V156Zm-12.46,0V145.09H251v9l6.65-9H259V156h-1.42v-8.84L251,156Zm-12.23,0V145.06h1.42v4.71H245v-4.71h1.43V156H245v-4.95h-6.25V156Zm-12.46,0V145.09h1.42v9l6.65-9h1.28V156h-1.42v-8.84L226.29,156Zm-13,.06v-1.3a1.75,1.75,0,0,0,1-.31,2.64,2.64,0,0,0,.79-1,7.25,7.25,0,0,0,.57-2,29.33,29.33,0,0,0,.26-3.28l.12-3.05h7.1V156h-1.43v-9.65h-4.41l0,1.88a26.15,26.15,0,0,1-.34,3.79,7.66,7.66,0,0,1-.78,2.41,3.15,3.15,0,0,1-1.2,1.25A3.58,3.58,0,0,1,211.93,156.06Zm-9.56-.06V145.06h1.42v4.69h1.35l3.64-4.69h1.64l-4.18,5.31L211,156h-1.68l-4.13-4.93h-1.35V156ZM186.8,145.06l3.21,4.29.17.31.16-.31,3.2-4.29h1.61L191,150.57l4.15,5.43h-1.61l-3.2-4.27-.16-.28-.17.28L186.82,156h-1.61l4.13-5.43-4.13-5.51Zm-13.15,9.8H176a2.23,2.23,0,0,0,1.8-.7,2.56,2.56,0,0,0,.62-1.75,2.46,2.46,0,0,0-.59-1.7,2.35,2.35,0,0,0-1.87-.66h-2.35ZM181.9,156V145.09h1.42V156Zm-9.67,0V145.06h1.42v3.87h2.47a3.88,3.88,0,0,1,2.81.94,3.31,3.31,0,0,1,1,2.52,3.61,3.61,0,0,1-1,2.59,3.54,3.54,0,0,1-2.71,1ZM160,156V145.06h1.42v4.71h6.25v-4.71h1.42V156h-1.42v-4.95h-6.25V156Zm-3.86-5.45a4.48,4.48,0,0,0-1.18-3.1,3.76,3.76,0,0,0-2.88-1.32,3.52,3.52,0,0,0-1.51.37,4.25,4.25,0,0,0-1.38,1,2.53,2.53,0,0,0-.7,1.35v3.35a4.69,4.69,0,0,0,1.53,2,3.62,3.62,0,0,0,2.22.78,3.52,3.52,0,0,0,2-.63,4.13,4.13,0,0,0,1.38-1.64A4.87,4.87,0,0,0,156.14,150.55Zm-7.65,3.18v6.73h-1.42v-15.4h1.28v2.13a5,5,0,0,1,1.76-1.67,4.42,4.42,0,0,1,2.31-.64,4.65,4.65,0,0,1,2.65.81,5.41,5.41,0,0,1,1.86,2.11,5.85,5.85,0,0,1,.67,2.75,6.34,6.34,0,0,1-.63,2.82,5,5,0,0,1-1.76,2.06,4.5,4.5,0,0,1-2.57.77,4.4,4.4,0,0,1-2.4-.68A5.45,5.45,0,0,1,148.49,153.73Zm-6.42,0a1.61,1.61,0,0,0,.48-1.05v-1.59a8,8,0,0,0-3-.58,4.42,4.42,0,0,0-2.49.63,1.89,1.89,0,0,0-.93,1.65,2.26,2.26,0,0,0,.72,1.67,2.71,2.71,0,0,0,1.94.7,4.65,4.65,0,0,0,1.9-.39A3.61,3.61,0,0,0,142.07,153.69Zm-7.32-.84a2.86,2.86,0,0,1,1.27-2.42,5.64,5.64,0,0,1,3.34-.92,9.66,9.66,0,0,1,3.19.5v-.92a2.94,2.94,0,0,0-.83-2.2,3,3,0,0,0-2.25-.82,6.3,6.3,0,0,0-3.51,1.28l-.54-1a7.38,7.38,0,0,1,4.2-1.47,4.36,4.36,0,0,1,3.19,1.16,4.26,4.26,0,0,1,1.17,3.17v5.06a.61.61,0,0,0,.13.44.59.59,0,0,0,.4.15V156a3.85,3.85,0,0,1-.66,0,1.09,1.09,0,0,1-.79-.31,1.19,1.19,0,0,1-.3-.7l0-.8a4.84,4.84,0,0,1-1.89,1.45,5.81,5.81,0,0,1-2.41.52,3.76,3.76,0,0,1-2.64-1A3.14,3.14,0,0,1,134.75,152.85ZM123.38,156V145.06h1.42v4.71h6.25v-4.71h1.43V156h-1.43v-4.95H124.8V156Zm-12.46,0V145.09h1.43v9l6.65-9h1.28V156h-1.43v-8.84L112.31,156Zm-3.85-5.45a4.49,4.49,0,0,0-1.19-3.1,3.73,3.73,0,0,0-2.88-1.32,3.45,3.45,0,0,0-1.5.37,4.29,4.29,0,0,0-1.39,1,2.58,2.58,0,0,0-.69,1.35v3.35a4.59,4.59,0,0,0,1.52,2,3.63,3.63,0,0,0,2.23.78,3.55,3.55,0,0,0,2-.63,4.29,4.29,0,0,0,1.38-1.64A5,5,0,0,0,107.07,150.55Zm-7.65,3.18v6.73H98v-15.4h1.28v2.13a5,5,0,0,1,1.77-1.67,4.42,4.42,0,0,1,2.3-.64,4.6,4.6,0,0,1,2.65.81,5.44,5.44,0,0,1,1.87,2.11,6,6,0,0,1,.67,2.75,6.34,6.34,0,0,1-.63,2.82,5.05,5.05,0,0,1-1.76,2.06,4.52,4.52,0,0,1-2.57.77,4.36,4.36,0,0,1-2.4-.68A5.35,5.35,0,0,1,99.42,153.73ZM86.36,150h8.09a4.38,4.38,0,0,0-1.29-2.89A3.83,3.83,0,0,0,90.39,146a3.87,3.87,0,0,0-2.78,1.13A4.32,4.32,0,0,0,86.36,150Zm4,6.19a5.34,5.34,0,0,1-4.77-2.86,5.9,5.9,0,0,1-.7-2.85,5.67,5.67,0,0,1,.7-2.79,5.2,5.2,0,0,1,1.95-2,5.31,5.31,0,0,1,2.8-.77,5.22,5.22,0,0,1,2.81.78,5.14,5.14,0,0,1,1.93,2.05,5.67,5.67,0,0,1,.68,2.76,5.41,5.41,0,0,1,0,.58H86.41a4.37,4.37,0,0,0,1.3,2.91,3.78,3.78,0,0,0,2.75,1.16,4,4,0,0,0,2-.55,3.1,3.1,0,0,0,1.33-1.43l1.24.34a4.13,4.13,0,0,1-1.8,2A5.46,5.46,0,0,1,90.39,156.2Zm-12-.2v-9.65H74.5v-1.29h9.23v1.29h-3.9V156Zm-14.35-6h8.08a4.29,4.29,0,0,0-1.29-2.89A3.79,3.79,0,0,0,68.08,146a3.85,3.85,0,0,0-2.78,1.13A4.32,4.32,0,0,0,64.05,150Zm4,6.19a5.3,5.3,0,0,1-2.82-.78,5.44,5.44,0,0,1-2-2.08,6,6,0,0,1-.69-2.85,5.77,5.77,0,0,1,.69-2.79,5.39,5.39,0,0,1,4.76-2.82,5.36,5.36,0,0,1,4.74,2.83,5.78,5.78,0,0,1,.68,2.76,5.41,5.41,0,0,1,0,.58H64.09a4.42,4.42,0,0,0,1.3,2.91,3.8,3.8,0,0,0,2.76,1.16,4,4,0,0,0,2-.55,3.1,3.1,0,0,0,1.33-1.43l1.24.34a4.13,4.13,0,0,1-1.8,2A5.49,5.49,0,0,1,68.08,156.2ZM53.48,155h4a1.86,1.86,0,0,0,1.4-.6,2,2,0,0,0,.57-1.4,1.94,1.94,0,0,0-.55-1.39,1.72,1.72,0,0,0-1.33-.59H53.48Zm0-5h3.71a1.67,1.67,0,0,0,1.31-.6A2.08,2.08,0,0,0,59,148a1.93,1.93,0,0,0-.51-1.33,1.63,1.63,0,0,0-1.25-.56H53.48Zm-1.36,6V145.06h5.45a2.75,2.75,0,0,1,2.08.8,2.68,2.68,0,0,1,.75,1.89,2.87,2.87,0,0,1-.44,1.58,2.64,2.64,0,0,1-1.2,1.06,2.91,2.91,0,0,1,1.54,1,2.62,2.62,0,0,1,.59,1.7,2.67,2.67,0,0,1-.94,2.11,3.56,3.56,0,0,1-2.38.79ZM38,154.86h2.74a2.27,2.27,0,0,0,1.81-.7,2.56,2.56,0,0,0,.61-1.75,2.45,2.45,0,0,0-.58-1.7,2.38,2.38,0,0,0-1.88-.66H38ZM36.52,156V145.06H38v3.87h2.82a3.86,3.86,0,0,1,2.81.94,3.31,3.31,0,0,1,1,2.52,3.61,3.61,0,0,1-1,2.59,3.51,3.51,0,0,1-2.7,1Zm-7.25,0v-9.65h-3.9v-1.29H34.6v1.29H30.69V156Zm-14.35-6H23a4.38,4.38,0,0,0-1.29-2.89,4,4,0,0,0-5.54,0A4.23,4.23,0,0,0,14.92,150Zm4,6.19a5.34,5.34,0,0,1-4.77-2.86,5.9,5.9,0,0,1-.7-2.85,5.67,5.67,0,0,1,.7-2.79,5.2,5.2,0,0,1,2-2,5.31,5.31,0,0,1,2.8-.77,5.33,5.33,0,0,1,4.74,2.83,5.67,5.67,0,0,1,.68,2.76,5.41,5.41,0,0,1,0,.58H15a4.42,4.42,0,0,0,1.3,2.91A3.78,3.78,0,0,0,19,155.12a4,4,0,0,0,2-.55,3.1,3.1,0,0,0,1.33-1.43l1.24.34a4.13,4.13,0,0,1-1.8,2A5.46,5.46,0,0,1,18.94,156.2Zm-11.39,0a5.31,5.31,0,0,1-2.83-.78,5.54,5.54,0,0,1-2-2.08,6.21,6.21,0,0,1,0-5.67,5.14,5.14,0,0,1,2-2,5.37,5.37,0,0,1,2.84-.76,5.09,5.09,0,0,1,2.69.7,4.5,4.5,0,0,1,1.77,1.9l-1.4.44a3.25,3.25,0,0,0-1.29-1.31,3.57,3.57,0,0,0-1.83-.48,3.7,3.7,0,0,0-2.83,1.25,4.44,4.44,0,0,0-1.14,3.11,4.59,4.59,0,0,0,1.18,3.16A3.66,3.66,0,0,0,7.49,155a3.88,3.88,0,0,0,2-.55,2.58,2.58,0,0,0,1.2-1.32l1.41.42a3.91,3.91,0,0,1-1.72,1.94A5.32,5.32,0,0,1,7.55,156.2Z"/><path class="cls-2" d="M121.37,13.79v14H107.32A14,14,0,0,0,93.47,40.21h8.17a6,6,0,0,1,1.54-2.68,5.84,5.84,0,0,1,4.14-1.72h22v-22a5.89,5.89,0,0,1,4.41-5.68V0h-.13a13.89,13.89,0,0,0-12.25,13.79Z"/><path class="cls-3" d="M129.41,69.64v-22H107.32a5.81,5.81,0,0,1-4.14-1.73,6,6,0,0,1-1.54-2.68h-8.1a13.79,13.79,0,0,0,4,8.36,14,14,0,0,0,9.83,4.09h14v14a14,14,0,0,0,12.44,13.85V75.32a6.08,6.08,0,0,1-2.68-1.54A5.84,5.84,0,0,1,129.41,69.64Z"/><path class="cls-4" d="M167.32,45.89a5.81,5.81,0,0,1-4.15,1.73h-22v22a5.84,5.84,0,0,1-1.72,4.14,6,6,0,0,1-2.68,1.54v8.17a13.79,13.79,0,0,0,8.36-4,14,14,0,0,0,4.09-9.83v-14h14A14.06,14.06,0,0,0,173,51.57a13.73,13.73,0,0,0,4-8.36h-8.17A6.24,6.24,0,0,1,167.32,45.89Z"/><path class="cls-5" d="M141.15,13.79v22h22a5.84,5.84,0,0,1,4.15,1.72,5.92,5.92,0,0,1,1.53,2.68H177a13.73,13.73,0,0,0-4-8.36,13.94,13.94,0,0,0-9.83-4.08h-14v-14A14.06,14.06,0,0,0,145.11,4a13.55,13.55,0,0,0-8.17-4h-.19V8.11a5.92,5.92,0,0,1,2.68,1.53A6.11,6.11,0,0,1,141.15,13.79Z"/></g></g></svg>